<svg xmlns="http://www.w3.org/2000/svg" viewBox="0 0 1600 1000" role="img" aria-labelledby="title desc">
<title id="title">Loleza Ridge highlands</title><desc id="desc">Premium demo illustration for Loleza Ridge Lodge.</desc>
<defs>
 <linearGradient id="sky" x1="0" y1="0" x2="1" y2="1"><stop offset="0" stop-color="#10261f"/><stop offset="1" stop-color="#6f4a32"/></linearGradient>
 <linearGradient id="gold" x1="0" y1="0" x2="1" y2="1"><stop offset="0" stop-color="#dabb55" stop-opacity=".95"/><stop offset="1" stop-color="#fff1a8" stop-opacity=".45"/></linearGradient>
 <filter id="blur"><feGaussianBlur stdDeviation="24"/></filter>
 <pattern id="grain" width="34" height="34" patternUnits="userSpaceOnUse"><circle cx="4" cy="8" r="1" fill="#fff" opacity=".08"/><circle cx="20" cy="25" r="1" fill="#fff" opacity=".06"/></pattern>
</defs>
<rect width="1600" height="1000" fill="url(#sky)"/>
<circle cx="1220" cy="190" r="170" fill="#dabb55" opacity=".15" filter="url(#blur)"/>

<path d="M0 650 C220 500 350 560 520 430 C700 290 810 420 980 330 C1160 235 1330 370 1600 220 V1000 H0Z" fill="#1b3b2f"/>
<path d="M0 760 C260 610 390 700 610 520 C820 350 1010 560 1200 430 C1380 310 1480 420 1600 350 V1000 H0Z" fill="#254b3a"/>
<path d="M0 835 C300 720 470 790 700 640 C900 510 1100 700 1280 560 C1420 450 1500 520 1600 500 V1000 H0Z" fill="#315d45"/>
<path d="M120 790 C380 700 540 770 720 660 S1090 680 1330 560" fill="none" stroke="url(#gold)" stroke-width="8" opacity=".55"/>
<path d="M200 850 C430 760 590 830 770 720 S1130 740 1420 610" fill="none" stroke="#dabb55" stroke-opacity=".25" stroke-width="5"/>

<rect width="1600" height="1000" fill="url(#grain)"/>
<rect x="56" y="56" width="1488" height="888" rx="38" fill="none" stroke="#fff" stroke-opacity=".12"/>
</svg>